<!-- Generator: Adobe Illustrator 21.0.0, SVG Export Plug-In  -->
<svg version="1.1"
	 xmlns="http://www.w3.org/2000/svg" xmlns:xlink="http://www.w3.org/1999/xlink" xmlns:a="http://ns.adobe.com/AdobeSVGViewerExtensions/3.0/"
	 x="0px" y="0px" width="212.944px" height="362.001px" viewBox="0 0 212.944 362.001"
	 style="enable-background:new 0 0 212.944 362.001;" xml:space="preserve">
<style type="text/css">
	.st0{fill:#FFFFFF;}
</style>
<defs>
</defs>
<path class="st0" d="M212.944,180.999c0,4.262-1.279,8.519-3.622,11.713L102.854,352.417c-3.833,5.751-10.223,9.584-17.674,9.584
	H21.297C9.584,362.001,0,352.417,0,340.705c0-4.258,1.279-8.516,3.622-11.709l98.592-147.997L3.622,33.006
	C1.279,29.812,0,25.555,0,21.293C0,9.584,9.584,0,21.297,0h63.882c7.451,0,13.842,3.833,17.674,9.584L209.322,169.29
	C211.665,172.483,212.944,176.741,212.944,180.999z"/>
</svg>