<!-- Generator: Adobe Illustrator 21.0.0, SVG Export Plug-In  -->
<svg version="1.1"
	 xmlns="http://www.w3.org/2000/svg" xmlns:xlink="http://www.w3.org/1999/xlink" xmlns:a="http://ns.adobe.com/AdobeSVGViewerExtensions/3.0/"
	 x="0px" y="0px" width="114.572px" height="28.556px" viewBox="0 0 114.572 28.556"
	 style="enable-background:new 0 0 114.572 28.556;" xml:space="preserve">
<style type="text/css">
	.st0{fill:#D1232A;}
</style>
<defs>
</defs>
<path class="st0" d="M23.431,0h1.058v28.556h-1.058V0z"/>
<g>
	<g>
		<path class="st0" d="M1.161,13.791H1.21c0.296-0.371,0.791-0.914,1.161-1.309l4.175-4.397h1.433L3.187,13l5.459,6.942H7.213
			l-4.842-6.226l-1.21,1.285v4.941H0V2.402h1.161V13.791z"/>
		<path class="st0" d="M10.545,8.084l2.767,7.362c0.469,1.161,0.84,2.174,1.161,3.162h0.049c0.346-0.988,0.766-2.026,1.21-3.162
			l2.816-7.362h1.235l-4.817,11.858H13.93L9.286,8.084H10.545z"/>
	</g>
</g>
<g>
	<g>
		<path class="st0" d="M29.877,1.114c1.593-0.256,3.671-0.398,5.862-0.398c3.643,0,6.005,0.654,7.854,2.049
			c1.992,1.48,3.244,3.842,3.244,7.229c0,3.671-1.337,6.204-3.187,7.769c-2.021,1.679-5.094,2.476-8.851,2.476
			c-2.248,0-3.842-0.142-4.923-0.285V1.114z M34.231,16.766c0.37,0.085,0.967,0.085,1.508,0.085
			c3.927,0.028,6.489-2.135,6.489-6.716c0.028-3.984-2.305-6.09-6.033-6.09c-0.968,0-1.594,0.085-1.963,0.171V16.766z"/>
		<path class="st0" d="M52.873,14.461c0.142,1.793,1.907,2.646,3.927,2.646c1.479,0,2.675-0.199,3.842-0.569l0.569,2.931
			c-1.423,0.569-3.159,0.854-5.037,0.854c-4.724,0-7.428-2.732-7.428-7.086c0-3.529,2.191-7.428,7.029-7.428
			c4.496,0,6.204,3.5,6.204,6.944c0,0.74-0.085,1.395-0.142,1.708H52.873z M57.966,11.502c0-1.053-0.455-2.817-2.447-2.817
			c-1.821,0-2.561,1.65-2.675,2.817H57.966z"/>
		<path class="st0" d="M64.542,16.254c0.797,0.483,2.447,1.053,3.728,1.053c1.309,0,1.85-0.455,1.85-1.167
			c0-0.711-0.427-1.053-2.049-1.593c-2.875-0.968-3.984-2.533-3.956-4.184c0-2.589,2.22-4.553,5.663-4.553
			c1.622,0,3.073,0.37,3.927,0.797l-0.768,2.988c-0.626-0.342-1.821-0.797-3.017-0.797c-1.053,0-1.65,0.427-1.65,1.138
			c0,0.655,0.541,0.996,2.248,1.594c2.646,0.911,3.756,2.248,3.785,4.297c0,2.59-2.049,4.497-6.033,4.497
			c-1.821,0-3.443-0.398-4.497-0.968L64.542,16.254z"/>
		<path class="st0" d="M81.389,2.253c0,1.195-0.911,2.163-2.333,2.163c-1.366,0-2.276-0.968-2.248-2.163
			c-0.028-1.252,0.882-2.191,2.277-2.191C80.478,0.062,81.36,1.001,81.389,2.253z M76.921,20.039V6.123h4.326v13.916H76.921z"/>
		<path class="st0" d="M98.009,6.123c-0.057,0.882-0.114,2.049-0.114,4.126v7.769c0,2.675-0.541,4.866-2.105,6.261
			c-1.537,1.309-3.614,1.708-5.663,1.708c-1.821,0-3.757-0.37-5.009-1.082l0.854-3.272c0.882,0.512,2.418,1.053,4.041,1.053
			c2.049,0,3.614-1.11,3.614-3.671v-0.911h-0.057c-0.826,1.167-2.163,1.821-3.757,1.821c-3.443,0-5.891-2.789-5.891-6.801
			c0-4.468,2.903-7.314,6.318-7.314c1.907,0,3.102,0.826,3.813,1.964h0.057l0.142-1.651H98.009z M93.569,11.786
			c0-0.284-0.029-0.569-0.085-0.796c-0.313-1.139-1.138-1.907-2.333-1.907c-1.565,0-2.846,1.423-2.846,3.956
			c0,2.077,1.024,3.699,2.846,3.699c1.11,0,1.992-0.74,2.276-1.764c0.114-0.313,0.143-0.769,0.143-1.138V11.786z"/>
		<path class="st0" d="M101.367,10.562c0-1.736-0.057-3.215-0.114-4.439h3.756l0.199,1.907h0.085c0.569-0.882,1.992-2.22,4.297-2.22
			c2.846,0,4.98,1.878,4.98,5.976v8.253h-4.326v-7.712c0-1.793-0.626-3.017-2.191-3.017c-1.195,0-1.907,0.825-2.191,1.622
			c-0.114,0.256-0.171,0.683-0.171,1.082v8.025h-4.326V10.562z"/>
	</g>
</g>
</svg>