<!-- Generator: Adobe Illustrator 21.0.0, SVG Export Plug-In  -->
<svg version="1.1"
	 xmlns="http://www.w3.org/2000/svg" xmlns:xlink="http://www.w3.org/1999/xlink" xmlns:a="http://ns.adobe.com/AdobeSVGViewerExtensions/3.0/"
	 x="0px" y="0px" width="9.206px" height="16.405px" viewBox="0 0 9.206 16.405" style="enable-background:new 0 0 9.206 16.405;"
	 xml:space="preserve">
<style type="text/css">
	.st0{fill:#D1232A;}
</style>
<defs>
</defs>
<g>
	<path class="st0" d="M8.852,6.964c0.236,0.236,0.354,0.63,0.354,1.18c0,0.472-0.158,0.944-0.472,1.416
		c-1.652,1.652-3.207,3.187-4.662,4.603c-0.472,0.433-1.121,1.062-1.947,1.889c-0.236,0.236-0.512,0.354-0.826,0.354
		c-0.472,0-0.787-0.157-0.944-0.474l-0.236-0.829c0-0.474,0.118-0.829,0.354-1.067L5.547,9.06c0.236-0.118,0.354-0.394,0.354-0.829
		c0-0.395-0.107-0.711-0.32-0.948L0.482,2.35C0.161,2.037,0,1.685,0,1.293l0.236-0.941C0.472,0.118,0.826,0,1.298,0
		c0.393,0,0.669,0.08,0.826,0.236L8.852,6.964z"/>
</g>
</svg>